<svg width="24" height="24" viewBox="0 0 24 24" fill="none" xmlns="http://www.w3.org/2000/svg">
  <path
    d="M14 3.5C14.6 3.5 15.1 3.9 15.2 4.5C15.3 5.1 14.9 5.7 14.3 5.9C13.3 6.1 12.3 6.6 11.5 7.3C10.1 8.5 9.2 10.3 9.2 12.2C9.2 15.6 11.9 18.4 15.3 18.6C15.9 18.6 16.4 19.1 16.4 19.7C16.4 20.4 15.8 20.9 15.1 20.9C10.4 20.7 6.7 16.8 6.7 12.2C6.7 9.6 7.8 7.2 9.8 5.5C11 4.4 12.5 3.7 14 3.5Z"
    fill="currentColor"
  />
  <path
    d="M11.9 10L10.6 11.3L11.9 12.6M14.1 10L15.4 11.3L14.1 12.6"
    stroke="currentColor"
    stroke-width="1.4"
    stroke-linecap="round"
    stroke-linejoin="round"
  />
  <path
    d="M12.8 9.4L12.1 13.2"
    stroke="currentColor"
    stroke-width="1.4"
    stroke-linecap="round"
  />
  <path
    d="M17.2 9.6H21M17.8 12H20.2M17.2 14.4H19.6"
    stroke="currentColor"
    stroke-width="1.2"
    stroke-linecap="round"
  />
  <path
    d="M15.9 15.2L16.3 16.2L17.3 16.6L16.3 17L15.9 18L15.5 17L14.5 16.6L15.5 16.2L15.9 15.2Z"
    fill="currentColor"
  />
</svg>
